<?xml version="1.0" encoding="UTF-8"?>
<svg width="40" height="36" viewBox="0 0 40 36" xmlns="http://www.w3.org/2000/svg">
  <g transform="translate(0, -4)">
    <!-- Star 1 -->
    <polygon points="4 6.7 5.2 7.3 4 8 3.3 9.2 2.7 8 1.5 7.3 2.7 6.7 3.3 5.5"
        fill="#ffa500" stroke-miterlimit="10" stroke-width="1" />
    <!-- Star 2 -->
    <polygon transform="translate(20,10)"
        points="4 2.7 5.2 3.3 4 4 3.3 5.2 2.7 4 1.5 3.3 2.7 2.7 3.3 1.5"
        fill="#ffa500" stroke-miterlimit="10" stroke-width="1" />
    <!-- Moon -->
    <path transform="translate(8,10)"
        d="M14.5 13.2c0-3.7 2-6.9 5-8.7-1.5-0.9-3.2-1.3-5-1.3-5.5 0-10 4.5-10 10s4.5 10 10 10c1.8 0 3.5-0.5 5-1.3-3-1.7-5-5-5-8.7z"
        fill="#ffa500" stroke="#ffa500" stroke-linejoin="round" stroke-width="2" />
  </g>
</svg>
